<?xml version="1.0" encoding="UTF-8"?>
<!DOCTYPE svg PUBLIC "-//W3C//DTD SVG 1.1//EN" "http://www.w3.org/Graphics/SVG/1.1/DTD/svg11.dtd">
<svg xmlns="http://www.w3.org/2000/svg" version="1.1" width="183px" height="224px" style="shape-rendering:geometricPrecision; text-rendering:geometricPrecision; image-rendering:optimizeQuality; fill-rule:evenodd; clip-rule:evenodd" xmlns:xlink="http://www.w3.org/1999/xlink">
<g><path style="opacity:0.999" fill="#ea9527" d="M 91.5,17.5 C 91.8065,27.2496 91.4732,36.9162 90.5,46.5C 73.6779,55.1157 57.0112,64.1157 40.5,73.5C 31.5274,68.8451 22.5274,64.5118 13.5,60.5C 14.4663,58.9432 15.7996,57.6099 17.5,56.5C 27.1889,51.9911 36.5223,46.8245 45.5,41C 61.0212,33.2366 76.3545,25.4033 91.5,17.5 Z"/></g>
<g><path style="opacity:1" fill="#413120" d="M 90.5,46.5 C 107.366,54.9363 124.033,63.9363 140.5,73.5C 124.15,82.8611 107.816,92.1944 91.5,101.5C 75.2844,93.297 59.2844,84.6304 43.5,75.5C 42.791,74.596 41.791,74.2627 40.5,74.5C 40.1698,93.3408 40.5031,112.007 41.5,130.5C 41.5,130.833 41.5,131.167 41.5,131.5C 32.134,135.404 23.134,140.071 14.5,145.5C 13.5002,117.175 13.1669,88.8412 13.5,60.5C 22.5274,64.5118 31.5274,68.8451 40.5,73.5C 57.0112,64.1157 73.6779,55.1157 90.5,46.5 Z"/></g>
<g><path style="opacity:1" fill="#ec9627" d="M 168.5,59.5 C 168.5,88.1667 168.5,116.833 168.5,145.5C 159.419,140.441 150.085,135.774 140.5,131.5C 141.321,112.24 141.821,92.9065 142,73.5C 150.618,68.4407 159.452,63.774 168.5,59.5 Z"/></g>
<g><path style="opacity:1" fill="#c07c25" d="M 43.5,75.5 C 41.5131,93.4695 40.8465,111.803 41.5,130.5C 40.5031,112.007 40.1698,93.3408 40.5,74.5C 41.791,74.2627 42.791,74.596 43.5,75.5 Z"/></g>
<g><path style="opacity:0.999" fill="#eb9629" d="M 43.5,75.5 C 59.2844,84.6304 75.2844,93.297 91.5,101.5C 91.5,120.5 91.5,139.5 91.5,158.5C 74.8078,149.457 58.1411,140.457 41.5,131.5C 41.5,131.167 41.5,130.833 41.5,130.5C 40.8465,111.803 41.5131,93.4695 43.5,75.5 Z"/></g>
<g><path style="opacity:0.996" fill="#a55d09" d="M 91.5,17.5 C 117.574,30.7475 143.241,44.7475 168.5,59.5C 159.452,63.774 150.618,68.4407 142,73.5C 141.821,92.9065 141.321,112.24 140.5,131.5C 123.955,140.028 107.622,149.028 91.5,158.5C 91.5,139.5 91.5,120.5 91.5,101.5C 107.816,92.1944 124.15,82.8611 140.5,73.5C 124.033,63.9363 107.366,54.9363 90.5,46.5C 91.4732,36.9162 91.8065,27.2496 91.5,17.5 Z"/></g>
<g><path style="opacity:1" fill="#fef5ec" d="M 51.5,100.5 C 57.2389,101.366 59.5722,104.699 58.5,110.5C 52.3233,109.976 49.9899,106.643 51.5,100.5 Z"/></g>
<g><path style="opacity:1" fill="#fef9f2" d="M 65.5,107.5 C 67.4664,108.441 69.4664,109.441 71.5,110.5C 73.565,117.834 71.7317,119.167 66,114.5C 65.5034,112.19 65.3367,109.857 65.5,107.5 Z"/></g>
<g><path style="opacity:1" fill="#fef4ea" d="M 51.5,113.5 C 58.0525,114.059 60.0525,117.392 57.5,123.5C 52.073,122.306 50.073,118.973 51.5,113.5 Z"/></g>
<g><path style="opacity:1" fill="#fdf7ee" d="M 65.5,121.5 C 71.5675,122.411 73.5675,125.745 71.5,131.5C 66.0698,130.354 64.0698,127.021 65.5,121.5 Z"/></g>
<g><path style="opacity:0.894" fill="#a65d07" d="M 43.5,167.5 C 48.5,167.5 53.5,167.5 58.5,167.5C 58.5,168.5 58.5,169.5 58.5,170.5C 60.1667,170.5 61.8333,170.5 63.5,170.5C 63.3359,173.187 63.5026,175.854 64,178.5C 65,179.833 66,179.833 67,178.5C 67.4974,175.854 67.6641,173.187 67.5,170.5C 69.8333,170.5 72.1667,170.5 74.5,170.5C 74.5,169.5 74.5,168.5 74.5,167.5C 76.1667,167.5 77.8333,167.5 79.5,167.5C 79.5,168.5 79.5,169.5 79.5,170.5C 80.5,170.5 81.5,170.5 82.5,170.5C 82.5,172.167 82.5,173.833 82.5,175.5C 81.5,175.5 80.5,175.5 79.5,175.5C 79.5,176.833 79.5,178.167 79.5,179.5C 82.6802,179.176 83.8469,180.51 83,183.5C 76.2126,185.565 73.0459,182.898 73.5,175.5C 72.5159,178.428 72.1826,181.428 72.5,184.5C 61.5503,186.934 56.8837,182.601 58.5,171.5C 57.1667,171.5 55.8333,171.5 54.5,171.5C 54.6655,175.514 54.4988,179.514 54,183.5C 52.3005,184.406 50.4672,184.739 48.5,184.5C 48.5,180.167 48.5,175.833 48.5,171.5C 46.8333,171.5 45.1667,171.5 43.5,171.5C 43.5,170.167 43.5,168.833 43.5,167.5 Z"/></g>
<g><path style="opacity:0.818" fill="#a55d07" d="M 95.5,167.5 C 97.4672,167.261 99.3005,167.594 101,168.5C 103.194,172.749 105.194,177.082 107,181.5C 107.499,177.848 107.665,174.182 107.5,170.5C 117.8,167.656 122.3,171.322 121,181.5C 118.804,184.125 115.97,185.125 112.5,184.5C 112.5,185.833 112.5,187.167 112.5,188.5C 110.833,188.5 109.167,188.5 107.5,188.5C 107.5,187.167 107.5,185.833 107.5,184.5C 105.5,184.5 103.5,184.5 101.5,184.5C 101.5,183.167 101.5,181.833 101.5,180.5C 98.0844,179.894 95.4178,180.894 93.5,183.5C 91.9547,184.452 90.288,184.785 88.5,184.5C 90.3432,178.648 92.6766,172.982 95.5,167.5 Z M 97.5,173.5 C 98.7759,174.386 98.7759,175.386 97.5,176.5C 96.913,175.767 96.913,174.767 97.5,173.5 Z M 114.5,174.5 C 116.213,175.635 116.88,177.302 116.5,179.5C 115.167,179.5 113.833,179.5 112.5,179.5C 112.365,177.446 113.032,175.779 114.5,174.5 Z"/></g>
<g><path style="opacity:0.868" fill="#a55c07" d="M 122.5,170.5 C 126.514,170.334 130.514,170.501 134.5,171C 137.658,174.472 138.158,178.306 136,182.5C 133.435,184.179 130.602,184.846 127.5,184.5C 127.5,185.833 127.5,187.167 127.5,188.5C 125.833,188.5 124.167,188.5 122.5,188.5C 122.5,182.5 122.5,176.5 122.5,170.5 Z M 129.5,174.5 C 133.234,175.974 133.4,177.64 130,179.5C 126.928,178.119 126.761,176.452 129.5,174.5 Z"/></g>
</svg>
